<?xml version="1.0" encoding="UTF-8" standalone="no"?>
<svg
   xmlns:dc="http://purl.org/dc/elements/1.1/"
   xmlns:cc="http://creativecommons.org/ns#"
   xmlns:rdf="http://www.w3.org/1999/02/22-rdf-syntax-ns#"
   xmlns:svg="http://www.w3.org/2000/svg"
   xmlns="http://www.w3.org/2000/svg"
   xmlns:sodipodi="http://sodipodi.sourceforge.net/DTD/sodipodi-0.dtd"
   xmlns:inkscape="http://www.inkscape.org/namespaces/inkscape"
   sodipodi:docname="Fan.svg"
   inkscape:version="1.0 (4035a4fb49, 2020-05-01)"
   id="svg67"
   version="1.1"
   viewBox="0 0 118.33449 118.33397"
   height="118.33397mm"
   width="118.33449mm">
  <defs
     id="defs61" />
  <sodipodi:namedview
     inkscape:window-maximized="0"
     inkscape:window-y="0"
     inkscape:window-x="104"
     inkscape:window-height="1040"
     inkscape:window-width="1274"
     inkscape:pagecheckerboard="false"
     showgrid="false"
     inkscape:document-rotation="0"
     inkscape:current-layer="layer1"
     inkscape:document-units="mm"
     inkscape:cy="552.19517"
     inkscape:cx="395.05332"
     inkscape:zoom="0.35"
     inkscape:pageshadow="2"
     inkscape:pageopacity="0.0"
     borderopacity="1.0"
     bordercolor="#666666"
     pagecolor="#ffffff"
     id="base" />
  <metadata
     id="metadata64">
    <rdf:RDF>
      <cc:Work
         rdf:about="">
        <dc:format>image/svg+xml</dc:format>
        <dc:type
           rdf:resource="http://purl.org/dc/dcmitype/StillImage" />
        <dc:title></dc:title>
      </cc:Work>
    </rdf:RDF>
  </metadata>
  <g
     transform="translate(-1.308809,-2.0650288)"
     id="layer1"
     inkscape:groupmode="layer"
     inkscape:label="Layer 1">
    <path
       style="stroke-width:0.264583"
       d="m 118.41359,49.305788 c -0.32755,-1.59147 -1.01044,-2.72706 -2.26325,-3.76185 -10.01183,-8.27405 -23.89637,-7.71789 -41.65414,1.6682 -1.15887,-1.15888 -2.41326,-2.13836 -3.819004,-2.98185 12.238834,-10.97995 23.395254,-15.58952 33.468474,-13.82951 2.96995,0.51885 5.02655,-2.88422 3.18638,-5.27209 -4.08438,-5.30093 -8.73284,-9.61681 -14.32137,-13.29769 -1.35731,-0.89376 -2.64292,-1.21338 -4.26059,-1.05966 -12.92991,1.22899 -22.354644,11.44006 -28.274164,30.63346 -1.63909,0 -3.21866,0.1942 -4.8088,0.59187 0.89032,-16.41792 5.51921,-27.56614 13.88692,-33.4446502 2.466974,-1.73302 1.51474,-5.59356 -1.47479,-5.98144 -6.63654,-0.86016 -12.97517,-0.62521 -19.52969,0.724165 -1.59147,0.327554 -2.72706,1.010445 -3.76184,2.263245 -8.27405,10.0118302 -7.7179,23.8963702 1.66819,41.6541502 -1.15887,1.15887 -2.13836,2.41326 -2.98185,3.819 -10.97994,-12.23884 -15.58952,-23.39526 -13.82951,-33.46847 0.51885,-2.96995 -2.88422,-5.02656 -5.27208,-3.18665 -5.30093,4.08438 -9.61681,8.73284 -13.2977,14.32137 -0.89376,1.35731 -1.2133805,2.64292 -1.05965,4.26059 1.22899,12.92992 11.44005,22.35464 30.63345,28.27417 0,1.63909 0.19421,3.21865 0.59188,4.8088 -16.41793,-0.89033 -27.56615,-5.51921 -33.4446605,-13.88692 -1.73302,-2.46698 -5.59356,-1.51474 -5.98143,1.47478 -0.86016998,6.63655 -0.62522,12.97517 0.72416,19.52969 0.32755,1.59147 1.01044,2.72706 2.26325,3.76185 10.0118305,8.27405 23.8963705,7.7179 41.6541405,-1.6682 1.15888,1.15888 2.41327,2.13836 3.819,2.98186 -12.23883,10.979937 -23.39525,15.589507 -33.46847,13.829507 -2.96995,-0.51885 -5.02655,2.88423 -3.18638,5.27209 4.08438,5.300925 8.73284,9.616805 14.32137,13.297695 1.35731,0.89376 2.64292,1.21338 4.26059,1.05965 12.92992,-1.22899 22.35464,-11.44005 28.27416,-30.633452 1.6391,0 3.21866,-0.19421 4.80881,-0.59214 -0.89033,16.417927 -5.51921,27.566142 -13.88692,33.444652 -2.46698,1.73303 -1.51474,5.59356 1.47478,5.98144 6.63655,0.86016 12.97517,0.62521 19.529694,-0.72416 1.59147,-0.32756 2.72706,-1.01045 3.76185,-2.26325 8.27404,-10.01183 7.71789,-23.896375 -1.6682,-41.654152 1.15888,-1.15888 2.13836,-2.41327 2.98185,-3.819 10.97994,12.23884 15.58951,23.395267 13.82951,33.468472 -0.51885,2.96995 2.88422,5.02656 5.27208,3.18638 5.30093,-4.08437 9.61681,-8.732835 13.2977,-14.321375 0.89376,-1.35731 1.21338,-2.64292 1.05965,-4.26058 C 109.708,76.575858 99.49694,67.151138 80.30354,61.231618 c 0,-1.6391 -0.19421,-3.21866 -0.59188,-4.80881 16.41793,0.89033 27.56615,5.51921 33.44466,13.88693 1.73302,2.46697 5.59356,1.51473 5.98143,-1.47479 0.86016,-6.63628 0.62521,-12.97438 -0.72416,-19.52916 z m -57.937404,28.44932 c -9.12521,0 -16.52296,-7.39775 -16.52296,-16.52296 0,-9.12522 7.39775,-16.52297 16.52296,-16.52297 9.12522,0 16.522974,7.39775 16.522974,16.52297 0,9.12521 -7.397754,16.52296 -16.522974,16.52296 z"
       id="path4" />
  </g>
</svg>
